<?xml version="1.0" encoding="utf-8"?>
<!-- Generator: Adobe Illustrator 16.0.0, SVG Export Plug-In . SVG Version: 6.00 Build 0)  -->
<!DOCTYPE svg PUBLIC "-//W3C//DTD SVG 1.1//EN" "http://www.w3.org/Graphics/SVG/1.1/DTD/svg11.dtd">
<svg version="1.1" id="Layer_1" xmlns="http://www.w3.org/2000/svg" xmlns:xlink="http://www.w3.org/1999/xlink" x="0px" y="0px"
	 width="700px" height="700px" viewBox="0 0 700 700" enable-background="new 0 0 700 700" xml:space="preserve">
<g id="Layer_2" display="none">
	<rect x="28" y="71.334" display="inline" fill="#352529" width="650" height="580"/>
</g>
<ellipse fill="#FFFFFF" cx="332.062" cy="209.203" rx="79.5" ry="79.454"/>
<g>
	<g>
		<path fill-rule="evenodd" clip-rule="evenodd" fill="#c4fc02" d="M206.543,312.801c-7.254-21.501-15.324-42.677-25.261-63.1
			c-4.924-10.121-4.963-9.846,6.086-10.711c14.177-1.112,28.318-2.677,42.475-4.045c3.442-0.332,4.483-1.736,3.788-5.485
			c-6.032-32.545,1.622-61.437,23.652-86.345c17.161-19.402,38.916-30.488,64.412-32.792c30.211-2.73,56.993,6.246,79.235,27.492
			c16.56,15.818,26.265,35.119,29.841,57.651c1.839,11.592,1.554,23.162-1.089,34.514c-0.969,4.163,1.059,4.527,3.652,4.834
			c7.23,0.858,14.487,1.483,21.733,2.205c9.546,0.951,19.093,1.887,28.634,2.869c4.235,0.437,1.515,2.895,0.915,4.162
			c-6.874,14.544-13.279,29.289-18.979,44.328c-3.055,8.058-5.776,16.242-8.646,24.369c-7.928,0.042-15.857,0.084-23.786,0.127
			c-0.028-21.608-0.038-43.216-0.114-64.824c-0.007-1.962,0.909-4.592-2.572-4.886c-2.652-0.224-4.606-0.028-5.635,3.191
			c-1.659,5.201-4.039,10.178-7.171,14.688c-1.711,2.465-2.229,5.024-2.221,7.952c0.044,14.625-0.04,29.251-0.08,43.877
			c-6.416,0.001-12.832,0.003-19.248,0.005c-0.026-6.28-0.004-12.562-0.107-18.841c-0.035-2.101,1.01-5.213-0.521-6.047
			c-1.647-0.898-3.153,2.22-5.07,3.051c-9.627,4.173-14.329,11.09-12.11,21.838c-6.136,0.01-12.271,0.021-18.408,0.03
			c-0.03-0.832-0.208-1.689-0.066-2.49c0.736-4.162-1.453-4.014-4.447-3.293c-3.368,0.811-6.795,1.46-10.233,1.87
			c-2.538,0.303-3.48,1.546-3.346,3.92c-6.306-0.002-12.61-0.003-18.916-0.005c0.576-2.829-1.604-3.225-3.44-3.635
			c-2.711-0.606-5.487-0.915-8.229-1.395c-6.224-1.091-6.222-1.103-6.427,5.031c-6.045,0.01-12.088,0.019-18.133,0.027
			c-0.101-3.492-0.315-6.986-0.263-10.477c0.034-2.274-0.718-3.802-2.826-4.745c-4.427-1.981-8.28-4.884-12.158-7.742
			c-0.64-0.472-1.513-1.265-2.051-1.111c-1.25,0.356-0.631,1.668-0.641,2.545c-0.08,7.158-0.082,14.317-0.107,21.476
			c-6.401,0-12.804,0-19.205,0c-0.041-11.644-0.354-23.296-0.02-34.928c0.197-6.844-0.741-12.934-4.85-18.699
			c-2.654-3.723-4.233-8.249-6.052-12.517c-0.991-2.326-1.923-4.179-4.942-3.576c-3.246,0.648-1.804,3.201-1.814,4.836
			c-0.133,21.626-0.12,43.252-0.144,64.879C223.274,312.854,214.909,312.827,206.543,312.801z M418.841,209.384
			c0.684-45.041-35.453-88.093-88.738-87.134c-46.547,0.837-82.61,36.993-84.707,82.055c-2.428,52.187,37.631,91.471,86.889,91.533
			C380.821,295.898,418.709,256.708,418.841,209.384z M212.316,272.914c-0.012,0-0.023,0-0.035,0c0-7.969-0.044-15.938,0.027-23.908
			c0.021-2.42-0.408-3.56-3.343-3.13c-5.057,0.741-10.188,1.007-15.295,1.355c-2.451,0.167-3.181,0.714-1.994,3.331
			c6.83,15.056,13.149,30.328,18.872,45.843c0.274,0.743-0.058,2.453,1.333,2.08c1.033-0.276,0.423-1.729,0.425-2.658
			C212.324,288.188,212.316,280.551,212.316,272.914z M451.811,271.292c0,7.319-0.033,14.639,0.038,21.958
			c0.01,1.006-0.689,2.239,0.548,3.061c0.501-0.969,1.082-1.904,1.486-2.912c1.42-3.538,2.731-7.119,4.168-10.649
			c4.242-10.422,8.236-20.947,13.088-31.118c0.708-1.485,2.643-3.941-1.168-4.345c-4.934-0.522-9.893-0.815-14.828-1.318
			c-2.641-0.269-3.44,0.757-3.386,3.367C451.908,256.652,451.81,263.973,451.811,271.292z"/>
		<path fill-rule="evenodd" clip-rule="evenodd" fill="#CDCCCB" d="M433.206,312.873c7.929-0.043,15.858-0.085,23.786-0.127
			c13.324,0.077,26.652,0.32,39.976,0.132c4.079-0.058,5.1,1.285,4.975,5.131c-0.26,7.989,0.029,15.994-0.133,23.988
			c-0.062,3.031,0.926,4.086,3.997,4.036c9.495-0.154,18.997,0.089,28.49-0.121c4.159-0.092,5.126,0.776,2.814,4.595
			c-4.73,7.815-9.054,15.879-13.836,23.661c-2.071,3.373-2.196,6.127-0.046,9.514c4.976,7.837,9.524,15.943,14.469,23.801
			c2.087,3.316,0.917,3.468-2.217,3.462c-31.989-0.062-63.979,0.004-95.968,0.033c-2.041-0.882-1.511-2.72-1.528-4.294
			c-0.047-4.455-0.022-8.913-0.013-13.369c0.015-7.403,0.02-7.403-7.267-7.323c-65.943,0.007-131.887,0.015-197.83,0.021
			c-8.066-0.146-7.934-0.144-8.108,7.923c-0.123,5.668,1.001,11.413-0.826,17.002c-31.151-0.017-62.303-0.031-93.455-0.051
			c-6.085-0.003-6.24-0.101-3.138-5.417c4.01-6.87,8.165-13.666,12.518-20.323c2.575-3.938,3.455-7.217,0.488-11.674
			c-5.053-7.593-9.231-15.763-13.919-23.604c-1.808-3.023-1.26-3.982,2.282-3.934c9.661,0.132,19.325-0.062,28.985,0.103
			c3.21,0.055,4.708-0.903,4.29-4.235c-0.124-0.983-0.064-1.999-0.011-2.995c0.45-8.424-0.947-16.899,0.717-25.287
			c8.43-1.244,16.907-0.268,25.359-0.518c6.158-0.183,12.322-0.143,18.485-0.201c8.366,0.026,16.731,0.053,25.097,0.08
			c5.94,0.001,11.881,0.003,17.822,0.004c6.401,0,12.804,0,19.205,0.001c6.015,0.018,12.03,0.036,18.045,0.054
			c6.045-0.009,12.088-0.018,18.132-0.026c6.032-0.001,12.065-0.002,18.097-0.003c6.306,0.002,12.61,0.003,18.916,0.005
			c6.03-0.002,12.062-0.004,18.093-0.007c6.137-0.01,12.272-0.021,18.409-0.03c5.937,0,11.872-0.001,17.808-0.001
			c6.416-0.002,12.832-0.004,19.249-0.005C421.345,312.872,427.275,312.872,433.206,312.873z M332.062,376.955
			c51.638,0,103.275-0.069,154.911,0.111c4.887,0.018,6.112-1.374,6.013-6.131c-0.311-14.818-0.206-29.648-0.045-44.473
			c0.037-3.46-0.983-4.555-4.508-4.552c-104.273,0.082-208.547,0.086-312.821-0.012c-3.809-0.003-4.784,1.184-4.738,4.85
			c0.187,14.823,0.255,29.653-0.028,44.473c-0.087,4.576,1.18,5.852,5.806,5.837C228.456,376.895,280.259,376.955,332.062,376.955z
			 M484.928,401.905c11.327,0,22.653-0.027,33.98,0.017c3.225,0.013,5.041-0.288,2.521-4.088
			c-3.475-5.239-6.401-10.839-9.769-16.154c-1.19-1.877-1.555-3.103-0.205-5.239c3.545-5.613,6.626-11.52,9.926-17.29
			c0.641-1.118,2.678-3.306,0.953-3.509c-4.465-0.526-10.646-0.517-16.073-0.399c-3.229,0.062-4.507-0.217-4.441,3.273
			c0.14,7.493-0.196,15.001,0.134,22.481c0.184,4.149-0.964,6.138-5.226,7.187c-15.103,3.722-30.1,7.867-45.146,11.823
			c-0.963,0.254-2.573,0.53-2.433,1.229c0.276,1.372,1.829,0.638,2.798,0.643C462.94,401.933,473.935,401.912,484.928,401.905z
			 M178.481,401.909c10.99,0,21.98,0.008,32.97-0.013c1.125-0.002,2.248-0.176,3.372-0.27c-0.582-1.566-2.035-1.348-3.276-1.676
			c-15.219-4.019-30.416-8.122-45.651-12.08c-3.131-0.814-4.176-2.435-3.995-5.647c0.28-4.979,0.074-9.986,0.074-14.982
			c0-11.319,0.398-11.116-11.085-11.343c-2.521-0.05-7.579-0.211-9.256-0.483c-1.538-0.25,0.074,2.208,0.581,3.111
			c3.248,5.781,6.5,11.564,9.965,17.216c1.391,2.268,1.519,4.038,0.048,6.358c-3.284,5.188-6.085,10.683-9.43,15.827
			c-2.128,3.274-1.611,4.08,2.213,4.029C156.167,401.809,167.325,401.904,178.481,401.909z"/>
		<path fill-rule="evenodd" clip-rule="evenodd" fill="#c4fc02" d="M223.941,410.938c1.827-5.589,0.703-11.334,0.826-17.002
			c0.175-8.066,0.042-8.069,8.108-7.923c1.361,13.267,0.829,26.483-2.203,39.448c-0.861,3.679,0.37,4.456,3.124,5.662
			c15.813,6.919,31.594,13.917,47.307,21.062c15.868,7.215,31.67,14.575,47.431,22.021c2.342,1.107,4.061,1.055,6.423-0.043
			c31.617-14.691,62.971-29.971,95.248-43.203c2.528-1.037,3.105-2.427,2.521-4.978c-3.023-13.202-3.737-26.541-2.021-39.991
			c7.286-0.08,7.281-0.08,7.267,7.323c-0.01,4.456-0.034,8.914,0.013,13.369c0.018,1.574-0.513,3.412,1.528,4.294
			c0.357,6.995,1.812,13.782,4.277,20.31c0.981,2.599,0.49,3.621-2.129,4.71c-29.103,12.098-57.743,25.236-86.25,38.669
			c-6.008,2.832-12.056,5.589-17.991,8.565c-4.054,2.034-7.733,1.749-11.823-0.168c-27.795-13.025-55.451-26.358-83.672-38.462
			c-6.864-2.943-13.698-5.964-20.603-8.812c-2.104-0.867-2.723-1.685-1.78-4.044C222.202,425.093,223.171,418.022,223.941,410.938z"
			/>
		<path fill-rule="evenodd" clip-rule="evenodd" fill="#c4fc02" d="M393.071,88.831c0.536-2.934-0.145-7.198,2.914-8.378
			c3.125-1.206,5.854,2.152,7.54,4.601c3.498,5.083,7.239,10.318,4.613,17.228c-0.805,2.118-1.816,3.016-4.028,2.309
			C398,102.64,392.853,95.358,393.071,88.831z"/>
		<path fill-rule="evenodd" clip-rule="evenodd" fill="#c4fc02" d="M380.564,102.589c-6.925-0.306-11.404-4.083-14.863-9.598
			c-1.028-1.64-0.916-2.488,0.849-3.485c8.222-4.646,18.703-1.327,22.826,7.311c0.962,2.016,0.857,3.559-1.602,4.165
			C385.384,101.571,382.969,102.058,380.564,102.589z"/>
		<path fill-rule="evenodd" clip-rule="evenodd" fill="#c4fc02" d="M388.671,117.97c-4.852,0.271-8.261-2.235-11.534-5.16
			c-1.458-1.302-1.38-2.226-0.072-3.622c5.909-6.31,18.569-6.405,24.868-0.28c1.628,1.583,0.445,2.24-0.395,3.153
			C398.037,115.866,393.945,118.411,388.671,117.97z"/>
		<path fill-rule="evenodd" clip-rule="evenodd" fill="#c4fc02" d="M438.776,165.861c-6.731-0.293-13.411-5.229-15.565-11.178
			c-0.642-1.771-0.221-2.713,1.502-3.483c8.271-3.694,19.121,1.75,21.405,10.605c0.522,2.027,0.046,2.856-1.757,3.108
			C442.4,165.187,440.566,166.26,438.776,165.861z"/>
		<path fill-rule="evenodd" clip-rule="evenodd" fill="#c4fc02" d="M447.715,148.956c-0.211-5.472,2.427-9.198,5.659-12.712
			c1.675-1.822,2.738-1.018,3.997,0.425c5.937,6.801,4.977,17.289-2.017,23.182c-1.858,1.566-2.95,1.584-4.287-0.544
			C448.981,155.989,447.451,152.57,447.715,148.956z"/>
		<path fill-rule="evenodd" clip-rule="evenodd" fill="#c4fc02" d="M215.089,148.297c0.045,5.314-1.308,9.773-5.321,12.624
			c-1.62,1.15-7.499-6.448-8.258-10.938c-0.894-5.288,1.22-9.746,4.378-13.812c1.322-1.702,2.435-1.07,3.637,0.22
			C212.785,139.888,215.347,143.669,215.089,148.297z"/>
		<path fill-rule="evenodd" clip-rule="evenodd" fill="#c4fc02" d="M236.691,145.916c-3.498,0.03-8.251,0.049-9.233-2.981
			c-0.976-3.012,2.722-6.072,5.462-8.281c4.74-3.821,12.051-4.154,17.328-1.049c1.898,1.117,2.06,2.382,0.821,4.058
			C247.479,142.514,243.35,146.41,236.691,145.916z"/>
		<path fill-rule="evenodd" clip-rule="evenodd" fill="#c4fc02" d="M269.39,88.073c0.007,6.549-5.202,13.803-10.927,15.855
			c-2.121,0.76-3.193,0.361-3.959-1.963c-2.53-7.669,0.494-15.582,7.686-19.45c5-2.689,5.649-2.389,6.704,3.101
			C269.08,86.59,269.286,87.56,269.39,88.073z"/>
		<path fill-rule="evenodd" clip-rule="evenodd" fill="#c4fc02" d="M436.738,193.742c-0.637-2.992,1.107-3.667,3.982-3.45
			c8.312,0.633,15.215,8.852,14.522,17.274c-0.176,2.148-0.985,2.798-3.153,2.624C443.652,209.511,436.806,202.418,436.738,193.742z
			"/>
		<path fill-rule="evenodd" clip-rule="evenodd" fill="#c4fc02" d="M425.9,145.949c-6.295-0.19-10.896-3.145-14.137-8.553
			c-0.947-1.582-1.243-2.817,0.538-3.659c9.443-4.464,17.823-2.192,22.896,7.596c1.021,1.968,0.262,2.671-1.484,3.194
			C431.173,145.286,428.692,146.335,425.9,145.949z"/>
		<path fill-rule="evenodd" clip-rule="evenodd" fill="#c4fc02" d="M282.396,101.996c-3.406,0.099-7.946-0.096-8.972-2.759
			c-1.077-2.796,2.418-5.77,4.901-8.029c4.791-4.359,12.67-4.9,18.116-1.521c1.98,1.229,1.294,2.3,0.519,3.646
			C293.724,98.958,288.941,101.967,282.396,101.996z"/>
		<path fill-rule="evenodd" clip-rule="evenodd" fill="#c4fc02" d="M254.326,130.864c-3.634,0.542-6.823-1.432-10.112-3.445
			c-2.61-1.597-2.644-3.154-0.521-4.912c8.129-6.732,14.495-7.283,23.485-0.324c1.246,0.964,1.744,1.771,0.426,3.169
			C264.794,128.333,259.168,130.845,254.326,130.864z"/>
		<path fill-rule="evenodd" clip-rule="evenodd" fill="#c4fc02" d="M454.63,225.554c-0.832,2.213,0.008,6.102-2.471,7.228
			c-2.447,1.112-5.271-1.249-7.425-3.061c-5.501-4.633-6.907-10.59-5.343-17.436c0.371-1.625,0.857-2.662,2.978-2.227
			C448.575,211.331,454.703,218.74,454.63,225.554z"/>
		<path fill-rule="evenodd" clip-rule="evenodd" fill="#c4fc02" d="M223.999,216.568c-0.077,7.509-4.17,13.265-10.525,15.887
			c-2.417,0.998-3.587,0.581-4.327-1.877c-2.231-7.411,0.232-14.273,6.753-18.31c1.933-1.196,4.284-3.181,6.25-2.039
			C224.326,211.495,223.871,214.627,223.999,216.568z"/>
		<path fill-rule="evenodd" clip-rule="evenodd" fill="#c4fc02" d="M226.036,194.496c-0.306,8.18-6.98,14.935-15.188,15.654
			c-2.209,0.194-3.059-0.536-3.266-2.562c-0.817-7.98,5.832-16.231,13.921-17.248C225.488,189.839,226.186,190.479,226.036,194.496z
			"/>
		<path fill-rule="evenodd" clip-rule="evenodd" fill="#c4fc02" d="M213.883,187.013c-3.535,0.514-4.137-0.974-3.158-4.582
			c2.257-8.312,6.097-12.086,14.479-13.301c4.97-0.72,6.412,0.912,5.018,5.679C227.976,182.493,221.953,187.084,213.883,187.013z"/>
		<path fill-rule="evenodd" clip-rule="evenodd" fill="#c4fc02" d="M223.908,165.852c-7.982-0.087-8.895-1.611-5.029-8.394
			c3.56-6.246,12.312-9.054,19.143-6.249c1.759,0.723,2.145,1.646,1.568,3.433C237.652,160.643,230.361,165.921,223.908,165.852z"/>
		<path fill-rule="evenodd" clip-rule="evenodd" fill="#c4fc02" d="M448.181,187.019c-8.036-0.145-14.933-6.347-16.215-14.246
			c-0.446-2.752,0.933-3.489,3.259-3.708c8.433-0.801,17.103,6.901,17.338,15.383C452.671,188.351,449.713,186.528,448.181,187.019z
			"/>
		<path fill-rule="evenodd" clip-rule="evenodd" fill="#c4fc02" d="M429.035,110.746c-0.307,2.734,0,7.841-3.462,8.749
			c-3.571,0.937-6.224-3.424-8.454-6.488c-0.191-0.263-0.276-0.602-0.429-0.896c-2.676-5.182-2.48-12.886,0.302-16.124
			c0.791-0.92,1.395-1.007,2.508-0.57C424.946,97.558,429.113,103.775,429.035,110.746z"/>
		<path fill-rule="evenodd" clip-rule="evenodd" fill="#c4fc02" d="M248.009,103.975c0.171,7.205-3.375,11.709-8.642,15.248
			c-1.914,1.285-2.705,0.688-3.713-1.268c-4.416-8.559-1.354-17.966,7.357-22.373c1.774-0.897,2.476-0.757,3.261,1.179
			C247.29,99.273,248.086,101.75,248.009,103.975z"/>
		<path fill-rule="evenodd" clip-rule="evenodd" fill="#c4fc02" d="M407.932,130.862c0.012,0-0.484,0.014-0.98-0.003
			c-4.323-0.144-12.259-4.757-12.276-7.13c-0.021-2.614,9.872-7.232,14.054-6.535c0.644,0.107,1.27,0.354,1.889,0.581
			c4.172,1.526,10.294,3.335,9.515,7.654C419.427,129.329,413.395,131.085,407.932,130.862z"/>
		<path fill-rule="evenodd" clip-rule="evenodd" fill="#c4fc02" d="M448.453,126.41c0.039,4.986-4.274,13.073-6.953,13.012
			c-1.964-0.046-6.361-8.086-6.799-12.168c-0.517-4.813,1.652-8.663,4.102-12.486c1.102-1.722,2.391-1.788,3.616-0.49
			C445.642,117.691,448.461,121.367,448.453,126.41z"/>
		<path fill-rule="evenodd" clip-rule="evenodd" fill="#c4fc02" d="M273.86,117.837c-0.814,0-1.314,0.022-1.812-0.004
			c-4.265-0.229-12.184-5.249-12.068-7.642c0.088-1.824,8.988-6.435,12.489-6.126c4.782,0.42,8.875,2.54,12.152,6.084
			c1.677,1.814,1.686,3.467-0.715,4.744C280.66,116.619,277.405,118.285,273.86,117.837z"/>
		<path fill-rule="evenodd" clip-rule="evenodd" fill="#c4fc02" d="M475.76,193.839c0.002,7.127-5.093,13.601-11.617,15.5
			c-2.022,0.589-2.792,0.447-3.51-1.809c-2.687-8.446,2.197-17.996,10.715-20.765c1.995-0.648,2.666-0.042,3.279,1.657
			C475.312,190.319,474.468,192.485,475.76,193.839z"/>
		<path fill-rule="evenodd" clip-rule="evenodd" fill="#c4fc02" d="M456.683,175.993c-0.414-6.928,3.441-10.953,8.52-14.28
			c2.09-1.37,3.158-0.668,4.165,1.389c3.982,8.14,0.59,17.584-7.761,21.789c-2.071,1.042-2.966,0.496-3.664-1.44
			C457.037,180.94,456.357,178.411,456.683,175.993z"/>
		<path fill-rule="evenodd" clip-rule="evenodd" fill="#c4fc02" d="M228.064,125.674c0.273,5.269-2.409,8.887-5.07,12.534
			c-1.295,1.775-2.383,1.184-3.583-0.081c-7.355-7.758-6.389-16.975,1.227-24.076c1.22-1.139,2.334-0.794,3.271,0.596
			C226.252,118.12,228.489,121.611,228.064,125.674z"/>
		<path fill-rule="evenodd" clip-rule="evenodd" fill="#c4fc02" d="M206.123,175.671c0.095,3.547,0.219,8.338-2.815,9.439
			c-2.969,1.078-5.963-2.724-8.182-5.412c-3.817-4.626-4.325-11.521-1.572-16.863c1.001-1.943,2.04-2.361,3.88-1.192
			C202.606,164.925,206.471,168.985,206.123,175.671z"/>
		<path fill-rule="evenodd" clip-rule="evenodd" fill="#c4fc02" d="M202.845,202.752c0.014,7.604-1.138,8.266-7.827,4.724
			c-7.551-3.997-8.659-11.774-6.771-19.183c0.477-1.873,1.463-2.127,3.324-1.465C198.382,189.25,202.831,195.379,202.845,202.752z"
			/>
		<path fill-rule="evenodd" clip-rule="evenodd" fill="#c4fc02" d="M200.627,235.024c-9.557-0.371-16.371-8.84-14.939-17.822
			c0.344-2.156,1.263-2.21,3.033-1.912c8.762,1.477,14.147,7.204,15.251,15.925C204.392,234.525,203.217,235.5,200.627,235.024z"/>
		<path fill-rule="evenodd" clip-rule="evenodd" fill="#c4fc02" d="M477.059,219.787c-0.141,8.917-7.012,15.534-15.366,15.255
			c-1.938-0.064-3.037-0.271-2.953-2.722c0.307-8.946,6.856-16.281,15.711-17.094C478.881,214.818,476.189,218.478,477.059,219.787z
			"/>
		<path fill-rule="evenodd" clip-rule="evenodd" fill="#CBCACB" d="M383.621,269.57c0.123,1.517-3.404,3.494-4.58,4.3
			c-14.594,10.013-30.475,15.811-48.43,14.866c7.28-6.852,20.348-17.718,18.389-17.761c-2.571-0.057-5.269,0.593-7.369-1.753
			c-3.941-4.403-7.982-8.718-11.982-13.069c11.715-4.632,23.105-9.876,33.096-17.717c9.989-7.841,10.655-9.504,14.507-13.374
			c8.775-8.819,14.921-19.342,19.739-30.755c1.882-4.458,2.923-5.654,4.039-11.534c2.974,0.777,3.706,3.395,4.955,5.727
			c1.659,3.096,1.4,7.081,4.453,9.5c2.192,6.567,1.889,13.229,0.742,19.921c-2.183,1.506-1.49,4.006-2.098,6.058
			c-0.945,4.446-3.542,7.177-8.048,8.261c-2.06,0.496-4.131,1.33-5.934,2.439c-5.922,3.64-11.277,3.437-16.128-1.825
			c-0.373-0.837-0.92-1.135-1.747-0.565c0.35,0.434,0.7,0.867,1.05,1.302c4.463,5.101,4.535,10.326,2.507,16.873
			c-2.475,7.985-5.399,14.675-13.97,17.329c-1.088,0.17-2.233,0.188-3.035,1.129c1.039-0.122,2.077-0.244,3.115-0.366
			c1.783-0.19,3.566-0.541,5.348-0.535C375.363,268.03,381.637,265.7,383.621,269.57z"/>
		<path fill-rule="evenodd" clip-rule="evenodd" fill="#2C2D31" d="M370.836,224.866c-0.491-0.321-0.981-0.644-1.474-0.965
			c-2.71-1.636-4.213-6.724-8.772-3.066c-4.811,1.7-9.502,4.024-14.456,4.958c-8.144,1.536-13.286,5.734-15.288,13.765
			c-0.268-0.118-0.535-0.236-0.803-0.354c0.143-0.478,0.289-0.957,0.427-1.436c2.11-7.353,2.028-14.067-5.338-18.74
			c-0.681-0.432-1.265-1.12-1.705-1.81c-3.55-5.567-8.5-8.113-15.132-7.216c-0.629,0.085-1.297-0.126-1.948-0.199
			c0.178-1.141,1.214-1.062,1.907-1.115c5.659-0.427,7.889-3.697,9.15-9.042c1.678-7.117,4.859-13.868,9.035-19.885
			c2.354-3.391,2.391-6.209,0.736-9.599c-0.295-0.605-1.566-1.159-0.736-1.945c0.777-0.733,1.659,0.012,1.996,0.741
			c2.062,4.473,6.156,4.854,10.312,5.57c8.207,1.416,16.169,3.882,23.962,6.77c2.625,0.972,4.735,0.94,6.956-0.542
			c0.331,0.328,0.663,0.656,0.995,0.984c-1.059,1.936-2.998,3.315-2.442,6.134c1.06,5.374,0.639,10.833,0.002,16.256
			c-0.786,6.69-2.119,13.468,3.089,19.219C371.736,223.822,371.723,224.586,370.836,224.866z"/>
		<path fill-rule="evenodd" clip-rule="evenodd" fill="#2C2D31" d="M252.75,201c0-1.232,0.392-2.062,0.956-2.928
			c9.372-3.982,18.496-7.757,25.222-15.699c0.392-0.464,1.106-1.193,1.423-1.084c1.061,0.368,0.654,1.416,0.324,2.023
			c-2.048,3.771-0.615,6.759,1.523,10.023c2.256,3.447,4.291,7.198,5.545,11.099c1.48,4.604,4.033,6.376,8.679,5.559
			c1.132-0.199,2.321-0.066,3.484-0.087c-0.008,0.33-0.062,0.652-0.162,0.968c-0.812,0.153-1.62,0.331-2.436,0.458
			c-5.426,0.844-8.975,3.238-9.52,9.389c-0.267,3.024-1.552,6.284-3.311,8.778c-2.965,4.205-2.952,7.758,0.446,11.481
			c0.39,0.428,0.854,1.281,0.678,1.626c-0.347,0.676-1.27,0.536-1.704,0.026c-6.618-7.76-16.466-5.951-24.882-8.3
			c-2.196-0.613-3.16-1.08-3.665-3.514c-0.883-4.256-2.308-8.402-2.599-12.902C252.495,211.167,252.254,207.458,252.75,201z"/>
		<path fill-rule="evenodd" clip-rule="evenodd" fill="#2C2D31" d="M354.864,271.597c-9.948,3.075-16.973,10.288-24.253,17.139
			c-13.05,0.599-24.967-3.342-36.402-9.146c-0.478-0.242-0.678-1.03-1.008-1.563c3.756-5.444,4.285-11.818,5.209-18.078
			c-0.824-3.051-3.445-5.005-4.738-7.77c0.24-0.267,0.481-0.533,0.723-0.8c8.734,9.109,19.131,4.558,28.932,3.127
			c3.286-0.48,3.284-4.921,4.464-7.731c0.485,0.032,0.972,0.064,1.457,0.097c0.012,3.099-1.724,6.273,0.401,9.281
			c4,4.351,8.041,8.666,11.982,13.069c2.101,2.346,4.798,1.697,7.369,1.753c1.959,0.043,3.921-0.003,5.882-0.01
			C354.861,271.175,354.855,271.386,354.864,271.597z"/>
		<path fill-rule="evenodd" clip-rule="evenodd" fill="#2C2D31" d="M320.574,158.24c-1.669-1.757-3.457-2.724-6.12-2.221
			c-5.062,0.957-10.193,1.538-15.296,2.275c-3.447,0.498-7.019,0.746-8.445,4.833c-0.188,0.536-0.607,1.354-1.428,1.054
			c-1.135-0.416-0.629-1.428-0.35-2.043c1.724-3.794,1.395-7.378-0.824-10.857c-0.262-0.41-0.393-0.924-0.5-1.407
			c-0.538-2.444-4.828-0.629-4.274-3.265c0.253-1.203,3.53-0.289,5.274-1.829c9.531-8.413,21.229-12.102,33.35-14.752
			c0.785-0.172,1.836-0.462,2.396-0.111c5.129,3.204,11.01,4.479,16.545,6.63c0.55,0.214,1.479,0.467,1.519,0.792
			c0.131,1.037-0.95,0.755-1.371,0.676c-5.472-1.029-8.532,2.304-11.524,6.049c-2.176,2.721-4.508,5.356-7.043,7.739
			c-1.924,1.81-2.109,3.54-0.934,5.677C321.225,157.733,320.899,157.986,320.574,158.24z"/>
		<path fill-rule="evenodd" clip-rule="evenodd" fill="#2C2D31" d="M378.973,232.854c4.851,5.262,10.206,5.465,16.128,1.825
			c1.803-1.109,3.874-1.943,5.934-2.439c4.506-1.083,7.103-3.815,8.048-8.261c0.456,0.038,0.911,0.076,1.367,0.113
			c-3.214,17.918-11.929,32.738-25.346,44.884c-1.127,1.02-2.128,2.783-4.178,1.658c-1.984-3.87-5.562-2.604-8.686-2.615
			c-1.781-0.006-3.564,0.345-5.348,0.535c0.001-0.257-0.026-0.511-0.08-0.763c8.57-2.654,11.495-9.344,13.97-17.329
			c2.028-6.547,1.956-11.771-2.507-16.873C378.508,233.344,378.74,233.099,378.973,232.854z"/>
		<path fill-rule="evenodd" clip-rule="evenodd" fill="#313235" d="M410.941,199.221c-3.053-2.419-3.298-7.625-4.957-10.721
			c-1.249-2.332-1.981-4.949-4.955-5.727c-2.023-2.258-4.605-3.787-7.1-5.43l-0.149-0.393l-0.43-0.038
			c-3.91-2.567-6.924-7.781-12.863-4.358c-0.09-0.457-0.18-0.914-0.271-1.372l0.051,0.025c2.578-1.783,3.014-3.901,1.681-6.832
			c-1.508-3.315-2.883-6.781-3.645-10.325c-1.475-6.875-5.313-11.21-12.112-12.978c-0.536-0.14-1.502,0.212-1.491-0.776
			c0.002-0.164,1.069-0.462,1.64-0.451c3.698,0.071,7.133,0.708,10.317,2.997C395.677,156.509,408.602,175.371,410.941,199.221z"/>
		<path fill-rule="evenodd" clip-rule="evenodd" fill="#CDCCCB" d="M298.41,259.949c-0.924,6.26-1.453,12.633-5.209,18.078
			c-3.697-0.326-6.34-2.792-8.909-4.951c-6.63-5.574-13.655-10.873-17.453-19.069l0.091-0.092c6.416,1.551,12.831,3.11,19.25,4.65
			c1.426,0.342,3.18,1.065,4.155-0.286c0.863-1.197-0.59-2.39-1.191-3.523c-0.416-0.783-1.685-1.69-0.372-2.397
			c0.94-0.506,1.724,0.721,2.345,1.462C293.193,256.294,294.44,259.732,298.41,259.949z"/>
		<path fill-rule="evenodd" clip-rule="evenodd" fill="#CDCCCB" d="M317.843,188.045c-0.323,4.484-1.999,9.514-3.437,14.588
			c-0.247,0.872-0.992,2.08-1.726,2.262c-6.016,1.502-11.92,4.137-18.354,2.326c-0.444-0.125-1.194-0.428-1.196-0.652
			c-0.008-1.039,0.892-0.515,1.367-0.555c2.305-0.193,4.629-0.181,6.923-0.443c9.474-1.086,12.555-7.982,14.354-15.985
			c0.181-0.802,0.044-1.686,0.284-2.46c0.33-1.059,0.831-2.075,1.381-3.041C317.534,183.917,317.889,184.599,317.843,188.045z"/>
		<path fill-rule="evenodd" clip-rule="evenodd" fill="#CDCCCB" d="M327.944,235.012c0.185,5.25-1.515,9.633-2.711,14.109
			c-0.396,1.48-1.217,2.992-2.718,3.391c-5.449,1.45-10.929,2.894-16.667,2.401c-0.816-0.07-1.935-0.124-1.948-1.099
			c-0.016-1.238,1.205-0.593,1.883-0.763c0.312-0.078,0.662-0.022,0.995-0.012c14.349,0.456,18.124-6.512,20.134-19.956
			c0.148-1.002-0.631-2.236,0.654-2.994c0.127,0.974,0.293,1.944,0.365,2.921C327.992,233.839,327.944,234.676,327.944,235.012z"/>
		<path fill-rule="evenodd" clip-rule="evenodd" fill="#CDCCCB" d="M370.704,176.777c0.03-0.163,0.001-0.393,0.099-0.48
			c6.595-5.949,6.695-12.983,3.505-20.602c-0.273-0.654-0.827-1.615,0.304-1.971c0.269-0.085,1.041,0.752,1.263,1.296
			c2.125,5.212,4.071,10.483,4.394,16.188c0,0-0.051-0.025-0.053-0.026c-4.472-0.22-5.241,5.364-9.236,5.888L370.704,176.777z"/>
		<path fill-rule="evenodd" clip-rule="evenodd" fill="#CDCCCB" d="M275.909,179.983c2.984-8.079,5.966-16.16,8.955-24.237
			c0.22-0.594,0.416-1.49,1.245-1.09c0.392,0.19,0.709,1.158,0.598,1.672c-1.884,8.66-4.971,16.783-10.835,23.623L275.909,179.983z"
			/>
		<path fill-rule="evenodd" clip-rule="evenodd" fill="#CDCCCB" d="M360.355,137.442c-6.621-0.893-12.969-2.723-19.269-4.728
			c-0.476-0.152-0.803-0.771-1.198-1.174c0.48-0.062,0.982-0.246,1.438-0.167c6.979,1.213,13.747,3.485,20.84,4.168
			c0.557,0.054,1.547,0.942,1.518,0.994C362.874,138.017,361.436,136.79,360.355,137.442z"/>
		<path fill-rule="evenodd" clip-rule="evenodd" fill="#313235" d="M410.449,224.092c-0.456-0.037-0.911-0.075-1.367-0.113
			c0.607-2.051-0.085-4.552,2.098-6.058C410.937,219.979,410.692,222.036,410.449,224.092z"/>
		<path fill-rule="evenodd" clip-rule="evenodd" fill="#2C2D31" d="M369.666,180.757c0.463-0.507,0.927-1.015,1.392-1.521
			c0,0.001-0.014-0.003-0.015-0.004c0.567,0.064,1.134,0.13,1.701,0.195c-0.694,0.771-1.389,1.542-2.083,2.314
			C370.329,181.413,369.997,181.085,369.666,180.757z"/>
		<path fill-rule="evenodd" clip-rule="evenodd" fill="#2C2D31" d="M321.549,157.48c0.428,0.673,1.016,1.651,0.22,2.075
			c-1.201,0.641-0.876-0.77-1.194-1.314C320.899,157.986,321.225,157.733,321.549,157.48z"/>
		<path fill-rule="evenodd" clip-rule="evenodd" fill="#2C2D31" d="M293.672,252.18c-0.649-1.084-0.653-1.427-0.649-1.434
			c0.46,0.206,0.916,0.42,1.372,0.634C294.153,251.646,293.912,251.913,293.672,252.18z"/>
		<path fill-rule="evenodd" clip-rule="evenodd" fill="#CDCCCB" d="M266.839,254.007c-0.133-0.157-0.267-0.313-0.4-0.47
			c0.164,0.126,0.327,0.253,0.491,0.378C266.931,253.915,266.839,254.007,266.839,254.007z"/>
		<path display="none" fill-rule="evenodd" clip-rule="evenodd" fill="#c4fc02" d="M325.947,448.273
			c-4.618,2.515-9.207,5.088-13.879,7.498c-0.933,0.481-2.09,2.124-3.304,0.226c-0.439-3.938,1.493-6.194,5.005-7.685
			c1.857-0.789,27.063-17.646,34.222-13.602c4.952,1.871,7.236,5.427,6.893,10.73c-0.361,5.58-4.632,10.519-11.054,12.592
			c-5.011,1.619-9.339,0.61-13.114-3.18C327.416,451.541,329.502,447.479,325.947,448.273z"/>
		<path display="none" fill-rule="evenodd" clip-rule="evenodd" fill="#c4fc02" d="M306.895,454.972
			c-1.789-1.687-3.804-3.193-5.318-5.097c-2.854-3.587-1.573-8.875,2.445-10.984c6.588-3.457,13.189-6.889,19.785-10.331
			c1.182,0.999,6.023,7.258,9.081,6.65c-0.01,0.211-0.021,0.422-0.03,0.632c0.004,0.373-18.031,10.104-19.713,11.18
			c-3.059,1.956-5.572,2.349-7.97-0.89c-0.554-0.748-1.608-2.165-2.61-0.829c-0.829,1.104,0.195,2.049,1.391,2.593
			C307.105,449.33,307.268,452.05,306.895,454.972z"/>
		<path display="none" fill-rule="evenodd" clip-rule="evenodd" fill="#c4fc02" d="M332.857,435.842
			c0.01-0.21,0.021-0.421,0.03-0.632c4.533-3.773-3.805-6.65-3.983-9.256c7.944-2.669,13.898,1.124,18.346,7.461
			C342.044,430.665,333.542,435.87,332.857,435.842z"/>
		<path fill-rule="evenodd" clip-rule="evenodd" fill="#313235" d="M366.812,267.792c0.054,0.252,0.081,0.506,0.08,0.763
			c-1.038,0.122-2.076,0.244-3.115,0.366C364.579,267.98,365.725,267.962,366.812,267.792z"/>
		<path fill-rule="evenodd" clip-rule="evenodd" fill="#2C2D31" d="M378.275,233.59c-0.35-0.435-0.7-0.868-1.05-1.302
			c0.827-0.569,1.374-0.271,1.747,0.565C378.74,233.099,378.508,233.344,378.275,233.59z"/>
	</g>
	<g>
		<path fill="#c4fc02" d="M198.409,341.237l-2.973,2.835c-2.022-2.138-4.298-3.207-6.826-3.207c-2.134,0-3.931,0.729-5.392,2.188
			c-1.461,1.459-2.192,3.258-2.192,5.396c0,1.489,0.323,2.812,0.971,3.966c0.647,1.155,1.562,2.062,2.745,2.721
			c1.184,0.658,2.498,0.987,3.944,0.987c1.233,0,2.361-0.23,3.382-0.691c1.021-0.461,2.144-1.299,3.368-2.515l2.882,3.007
			c-1.65,1.61-3.208,2.727-4.676,3.35c-1.467,0.622-3.143,0.934-5.025,0.934c-3.472,0-6.313-1.101-8.525-3.302
			s-3.317-5.022-3.317-8.464c0-2.227,0.503-4.205,1.51-5.937c1.007-1.73,2.45-3.122,4.327-4.175s3.899-1.579,6.065-1.579
			c1.842,0,3.616,0.39,5.321,1.167C195.705,338.696,197.174,339.803,198.409,341.237z"/>
		<path fill="#c4fc02" d="M203.357,337.313h4.312v8.426h7.454v-8.426h4.296v22.332h-4.296v-9.792h-7.454v9.792h-4.312V337.313z"/>
		<path fill="#c4fc02" d="M232.578,337.313h4.311l8.589,22.332h-4.418l-1.747-4.6H230.2l-1.817,4.6h-4.418L232.578,337.313z
			 M234.76,343.234l-2.997,7.666h5.975L234.76,343.234z"/>
		<path fill="#c4fc02" d="M250.297,337.313h4.504c2.467,0,4.223,0.22,5.27,0.66s1.888,1.172,2.525,2.193
			c0.637,1.022,0.956,2.232,0.956,3.629c0,1.468-0.352,2.694-1.055,3.682c-0.703,0.986-1.764,1.733-3.18,2.239l5.291,9.929h-4.647
			l-5.022-9.458h-0.389v9.458h-4.251V337.313z M254.548,346.043h1.332c1.352,0,2.283-0.178,2.792-0.533
			c0.509-0.355,0.764-0.944,0.764-1.768c0-0.487-0.126-0.911-0.378-1.271c-0.252-0.36-0.59-0.619-1.014-0.776
			c-0.424-0.158-1.201-0.236-2.331-0.236h-1.166V346.043z"/>
		<path fill="#c4fc02" d="M269.289,337.313h4.25v18.278h6.194v4.054h-10.445V337.313z"/>
		<path fill="#c4fc02" d="M294.754,336.751c3.16,0,5.877,1.145,8.15,3.432c2.274,2.287,3.411,5.076,3.411,8.365
			c0,3.259-1.122,6.017-3.365,8.273c-2.243,2.258-4.965,3.386-8.165,3.386c-3.353,0-6.138-1.158-8.356-3.477
			c-2.218-2.317-3.327-5.07-3.327-8.259c0-2.136,0.516-4.099,1.549-5.891c1.033-1.791,2.454-3.211,4.261-4.259
			C290.721,337.275,292.668,336.751,294.754,336.751z M294.709,340.911c-2.067,0-3.805,0.719-5.213,2.156
			c-1.408,1.437-2.112,3.264-2.112,5.48c0,2.47,0.886,4.423,2.659,5.86c1.378,1.123,2.959,1.685,4.742,1.685
			c2.016,0,3.733-0.729,5.151-2.186c1.419-1.458,2.128-3.254,2.128-5.39c0-2.126-0.715-3.925-2.143-5.397
			C298.493,341.647,296.756,340.911,294.709,340.911z"/>
		<path fill="#c4fc02" d="M309.366,337.313h12.343v4.189h-4.069v18.143h-4.312v-18.143h-3.962V337.313z"/>
		<path fill="#c4fc02" d="M323.666,337.313h12.343v4.189h-4.069v18.143h-4.312v-18.143h-3.962V337.313z"/>
		<path fill="#c4fc02" d="M340.183,337.313h12.191v4.159h-7.971v4.039h7.971v4.083h-7.971v5.876h7.971v4.175h-12.191V337.313z"/>
		<path fill="#c4fc02" d="M367.811,337.313h4.504c2.467,0,4.224,0.22,5.27,0.66s1.888,1.172,2.525,2.193
			c0.637,1.022,0.955,2.232,0.955,3.629c0,1.468-0.352,2.694-1.056,3.682c-0.703,0.986-1.763,1.733-3.18,2.239l5.29,9.929h-4.646
			l-5.022-9.458h-0.389v9.458h-4.251V337.313z M372.062,346.043h1.332c1.352,0,2.283-0.178,2.792-0.533
			c0.51-0.355,0.765-0.944,0.765-1.768c0-0.487-0.126-0.911-0.379-1.271c-0.252-0.36-0.59-0.619-1.014-0.776
			c-0.424-0.158-1.2-0.236-2.331-0.236h-1.165V346.043z"/>
		<path fill="#c4fc02" d="M386.817,337.313h12.191v4.159h-7.971v4.039h7.971v4.083h-7.971v5.876h7.971v4.175h-12.191V337.313z"/>
		<path fill="#c4fc02" d="M404.275,337.313h11.083v4.145h-6.862v4.054h6.862v4.083h-6.862v10.051h-4.221V337.313z"/>
		<path fill="#c4fc02" d="M420.396,337.313h12.191v4.159h-7.971v4.039h7.971v4.083h-7.971v5.876h7.971v4.175h-12.191V337.313z"/>
		<path fill="#c4fc02" d="M438.083,337.313h4.504c2.467,0,4.224,0.22,5.27,0.66s1.888,1.172,2.525,2.193
			c0.637,1.022,0.955,2.232,0.955,3.629c0,1.468-0.352,2.694-1.056,3.682c-0.703,0.986-1.763,1.733-3.18,2.239l5.29,9.929h-4.646
			l-5.022-9.458h-0.389v9.458h-4.251V337.313z M442.334,346.043h1.332c1.352,0,2.283-0.178,2.792-0.533
			c0.51-0.355,0.765-0.944,0.765-1.768c0-0.487-0.126-0.911-0.379-1.271c-0.252-0.36-0.59-0.619-1.014-0.776
			c-0.424-0.158-1.2-0.236-2.331-0.236h-1.165V346.043z"/>
		<path fill="#c4fc02" d="M457.089,337.313h12.191v4.159h-7.971v4.039h7.971v4.083h-7.971v5.876h7.971v4.175h-12.191V337.313z"/>
		<path fill="#c4fc02" d="M474.501,337.313h12.191v4.159h-7.971v4.039h7.971v4.083h-7.971v5.876h7.971v4.175h-12.191V337.313z"/>
	</g>
	<g>
		<path fill="#FFFFFF" d="M249.296,395.992c2.344,0,4.36,0.849,6.047,2.545c1.687,1.697,2.53,3.767,2.53,6.207
			c0,2.418-0.832,4.464-2.497,6.139c-1.664,1.674-3.684,2.512-6.058,2.512c-2.487,0-4.553-0.86-6.199-2.58
			c-1.646-1.719-2.469-3.762-2.469-6.127c0-1.584,0.383-3.041,1.15-4.37s1.82-2.383,3.162-3.159
			C246.303,396.381,247.748,395.992,249.296,395.992z M249.262,399.078c-1.534,0-2.823,0.533-3.868,1.6s-1.567,2.422-1.567,4.066
			c0,1.832,0.658,3.281,1.973,4.348c1.022,0.833,2.195,1.25,3.518,1.25c1.496,0,2.77-0.541,3.822-1.622
			c1.053-1.081,1.579-2.414,1.579-3.998c0-1.577-0.53-2.912-1.59-4.005C252.07,399.624,250.78,399.078,249.262,399.078z"/>
		<path fill="#FFFFFF" d="M261.984,396.409h3.341c1.83,0,3.133,0.163,3.91,0.489c0.776,0.327,1.4,0.869,1.873,1.628
			s0.709,1.655,0.709,2.692c0,1.089-0.261,1.999-0.783,2.731c-0.522,0.731-1.309,1.285-2.359,1.661l3.925,7.366h-3.448l-3.726-7.018
			h-0.289v7.018h-3.154V396.409z M265.138,402.886h0.988c1.003,0,1.693-0.132,2.071-0.396s0.567-0.701,0.567-1.312
			c0-0.361-0.094-0.676-0.281-0.943c-0.188-0.268-0.438-0.46-0.752-0.576c-0.314-0.117-0.891-0.176-1.729-0.176h-0.865V402.886z"/>
		<path fill="#FFFFFF" d="M291.369,399.112l-2.221,2.196c-1.405-1.487-3.043-2.23-4.915-2.23c-1.631,0-2.997,0.541-4.098,1.622
			s-1.651,2.396-1.651,3.942c0,1.6,0.571,2.955,1.714,4.066s2.552,1.667,4.229,1.667c1.09,0,2.009-0.229,2.757-0.688
			s1.351-1.175,1.809-2.151h-4.798v-2.962h8.335l0.023,0.698c0,1.449-0.376,2.823-1.127,4.122c-0.751,1.3-1.723,2.291-2.918,2.974
			c-1.193,0.684-2.594,1.025-4.201,1.025c-1.72,0-3.253-0.374-4.601-1.121c-1.348-0.747-2.415-1.812-3.199-3.193
			c-0.785-1.381-1.177-2.872-1.177-4.472c0-2.192,0.725-4.1,2.174-5.722c1.72-1.93,3.957-2.895,6.713-2.895
			c1.441,0,2.789,0.267,4.043,0.8C289.319,397.242,290.355,398.016,291.369,399.112z"/>
		<path fill="#FFFFFF" d="M301.425,396.409h3.198l6.373,16.568h-3.278l-1.296-3.413h-6.762l-1.348,3.413h-3.277L301.425,396.409z
			 M303.043,400.802l-2.223,5.688h4.434L303.043,400.802z"/>
		<path fill="#FFFFFF" d="M314.367,396.409h3.025l7.09,10.902v-10.902h3.154v16.568h-3.034l-7.081-10.869v10.869h-3.154V396.409z"/>
		<path fill="#FFFFFF" d="M332.119,396.409h3.131v16.568h-3.131V396.409z"/>
		<path fill="#FFFFFF" d="M338.842,396.409h10.024l-5.899,13.538h5.517v3.03h-10.126l5.873-13.449h-5.389V396.409z"/>
		<path fill="#FFFFFF" d="M357.232,396.409h3.198l6.373,16.568h-3.278l-1.296-3.413h-6.761l-1.349,3.413h-3.277L357.232,396.409z
			 M358.852,400.802l-2.224,5.688h4.433L358.852,400.802z"/>
		<path fill="#FFFFFF" d="M368.531,396.409h9.157v3.108h-3.019v13.46h-3.198v-13.46h-2.94V396.409z"/>
		<path fill="#FFFFFF" d="M380.549,396.409h3.131v16.568h-3.131V396.409z"/>
		<path fill="#FFFFFF" d="M395.974,395.992c2.345,0,4.36,0.849,6.047,2.545c1.687,1.697,2.53,3.767,2.53,6.207
			c0,2.418-0.832,4.464-2.496,6.139c-1.665,1.674-3.685,2.512-6.059,2.512c-2.487,0-4.554-0.86-6.199-2.58
			c-1.646-1.719-2.468-3.762-2.468-6.127c0-1.584,0.383-3.041,1.149-4.37s1.82-2.383,3.161-3.159
			C392.981,396.381,394.426,395.992,395.974,395.992z M395.939,399.078c-1.533,0-2.822,0.533-3.867,1.6s-1.567,2.422-1.567,4.066
			c0,1.832,0.658,3.281,1.974,4.348c1.022,0.833,2.194,1.25,3.518,1.25c1.496,0,2.77-0.541,3.822-1.622s1.579-2.414,1.579-3.998
			c0-1.577-0.53-2.912-1.59-4.005C398.747,399.624,397.458,399.078,395.939,399.078z"/>
		<path fill="#FFFFFF" d="M408.458,396.409h3.025l7.09,10.902v-10.902h3.153v16.568h-3.034l-7.08-10.869v10.869h-3.154V396.409z"/>
	</g>
</g>
<g>
	<g>
		<path fill-rule="evenodd" clip-rule="evenodd" fill="#c4fc02" d="M337.438,458.172c-1.517-1.03-2.22-1.54-3.07-2.587
			c-1.271-1.563-2.085-3.338-2.262-5.38c-0.039-0.458-0.183-0.925-0.369-1.347c-0.335-0.754-0.929-0.973-1.691-0.652
			c-0.357,0.149-0.676,0.389-1.018,0.578c-1.864,1.035-3.736,2.053-5.592,3.103c-1.51,0.855-2.99,1.768-4.505,2.614
			c-0.887,0.496-1.82,0.9-2.72,1.372c-0.948,0.497-1.877,1.032-2.821,1.537c-0.378,0.202-0.766,0.397-1.167,0.548
			c-0.473,0.176-0.811-0.047-0.888-0.542c-0.018-0.115-0.012-0.234-0.01-0.353c0.031-1.348,0.087-2.697,0.088-4.046
			c0.001-0.559,0.146-1.002,0.623-1.304c0.477-0.299,0.96-0.583,1.443-0.869c0.854-0.508,1.709-1.011,2.564-1.517
			c0.051-0.03,0.093-0.074,0.146-0.1c0.828-0.388,1.624-0.826,2.404-1.311c0.872-0.541,1.83-0.942,2.728-1.447
			c0.845-0.476,1.658-1.01,2.485-1.516c0.101-0.062,0.204-0.117,0.308-0.173c0.529-0.284,1.056-0.573,1.59-0.851
			c0.898-0.466,1.803-0.919,2.699-1.391c0.342-0.181,0.666-0.4,1.002-0.593c0.186-0.106,0.384-0.19,0.572-0.292
			c0.477-0.258,0.953-0.517,1.429-0.779c0.068-0.037,0.121-0.103,0.188-0.138c0.871-0.438,1.744-0.869,2.613-1.312
			c0.348-0.176,0.684-0.375,1.029-0.558c0.361-0.191,0.728-0.373,1.09-0.561c0.225-0.116,0.447-0.236,0.67-0.356
			c0.444-0.238,0.889-0.476,1.33-0.719c0.203-0.112,0.405-0.229,0.598-0.357c0.129-0.086,4.769-2.13,5.212-2.276
			c0.425-0.141,0.856-0.291,1.296-0.346c2.15-0.267,4.307-0.315,6.422,0.21c3.178,0.787,5.616,2.581,7.17,5.502
			c1.714,3.058,0.681,8.569,0.608,8.74c-0.76,1.787-1.612,3.521-2.912,4.991c-1.121,1.266-2.369,2.366-3.807,3.284
			c-1.05,0.669-2.023,1.276-3.169,1.85c-0.911,0.484-4.025,1.527-5.791,1.297C343.955,460.131,340.373,459.859,337.438,458.172z"/>
		<path fill-rule="evenodd" clip-rule="evenodd" fill="#c4fc02" d="M351.077,432.789c-0.362-0.073-0.623-0.091-0.858-0.18
			c-1.972-0.705-5.232-0.045-6.485,0.348c-0.613,0.283-3.592,1.438-4.739,1.967c-0.989,0.456-1.946,0.984-2.918,1.48
			c-0.448,0.229-0.899,0.456-1.346,0.687c-0.659,0.34-1.322,0.67-1.973,1.027c-0.957,0.526-1.896,1.086-2.856,1.606
			c-0.989,0.537-2,1.034-2.99,1.57c-0.818,0.443-1.623,0.918-2.433,1.38c-0.354,0.202-0.704,0.408-1.055,0.613
			c-0.287,0.167-0.57,0.339-0.859,0.501c-0.306,0.172-0.616,0.336-0.925,0.501c-0.291,0.156-0.586,0.306-0.873,0.467
			c-0.136,0.077-0.251,0.188-0.39,0.261c-0.791,0.421-1.592,0.824-2.377,1.253c-1.108,0.607-2.207,1.234-3.312,1.848
			c-0.17,0.095-0.359,0.154-0.532,0.245c-0.48,0.255-0.951,0.533-1.438,0.774c-0.47,0.233-0.948,0.457-1.439,0.64
			c-0.37,0.137-0.725,0.062-1.023-0.24c-0.7-0.707-1.422-1.391-2.114-2.104c-1.09-1.122-2.16-2.263-3.241-3.394
			c-0.635-0.664-1.276-1.324-1.912-1.988c-0.554-0.578-0.476-1.089,0.244-1.448c1.642-0.821,3.297-1.615,4.934-2.447
			c0.922-0.468,1.812-0.995,2.726-1.481c1.018-0.54,2.047-1.058,3.066-1.594c0.983-0.52,1.957-1.058,2.94-1.575
			c0.882-0.464,1.772-0.908,2.656-1.368c0.382-0.198,0.752-0.417,1.135-0.613c2.035-1.043,4.082-2.063,6.102-3.133
			c0.843-0.444,4.012-2.196,4.585-2.435c0.574-0.239,1.858-1.074,2.739-1.332c2.495-0.729,5.331-0.655,7.871-0.005
			c1.193,0.307,1.793,0.572,2.648,1.203c1.88,1.388,3.57,2.453,5.273,4.289c0.014,0.015,1.661,1.558,1.606,2.424
			C351.504,432.691,351.182,432.734,351.077,432.789z M336.634,434.937c0.637-0.293,2.139-1.078,2.378-1.681
			c0.274-0.5-0.695-1.513-1.856-2.627c-0.533-0.539-1.049-1.1-1.582-1.64c-0.74-0.749-1.463-1.517-2.243-2.22
			c-0.551-0.495-1.433-0.419-2.115,0.04c-0.729,0.379-1.858,1.158-1.946,1.235c-0.731,0.626-0.716,1.408,0.03,2.009
			c0.167,0.135,1.94,2.059,2.691,2.853c0.697,0.736,1.398,1.469,2.134,2.164C335.04,436.223,336.129,435.169,336.634,434.937z"/>
		<path fill-rule="evenodd" clip-rule="evenodd" fill="#c4fc02" d="M309.341,453.557c0,0.47-0.003,0.94,0.002,1.408
			c0.003,0.343,0.007,0.695-0.396,0.823c-0.374,0.119-0.631-0.107-0.857-0.371c-0.587-0.68-1.144-1.389-1.769-2.031
			c-0.955-0.979-1.956-1.915-2.94-2.863c-0.465-0.448-0.313-1.19,0.312-1.496c0.489-0.239,0.977-0.485,1.465-0.725
			c0.434-0.212,0.859-0.17,1.198,0.16c0.91,0.888,1.81,1.786,2.679,2.714c0.179,0.192,0.265,0.522,0.288,0.798
			c0.044,0.524,0.014,1.056,0.014,1.583C309.337,453.557,309.339,453.557,309.341,453.557z"/>
		<path fill-rule="evenodd" clip-rule="evenodd" fill="#c4fc02" d="M301.73,445.905c0-0.351,0.005-0.7-0.002-1.051
			c-0.006-0.301,0.152-0.412,0.433-0.426c0.467-0.022,0.822,0.21,1.145,0.502c0.273,0.248,0.526,0.519,0.787,0.782
			c0.408,0.411,0.438,0.986-0.037,1.312c-0.571,0.394-1.201,0.705-1.956,0.383c-0.291-0.124-0.382-0.28-0.37-0.567
			c0.013-0.31,0.003-0.622,0.003-0.935C301.732,445.905,301.731,445.905,301.73,445.905z"/>
		<path display="none" fill-rule="evenodd" clip-rule="evenodd" fill="#c4fc02" d="M335.033,435.516
			c-0.344-0.162-0.688-0.238-0.909-0.445c-0.735-0.695-1.437-1.428-2.134-2.164c-0.751-0.794-1.479-1.608-2.222-2.41
			c-0.146-0.157-0.303-0.308-0.47-0.442c-0.746-0.601-0.762-1.383-0.03-2.009c0.088-0.077,1.129-0.74,1.946-1.235
			c0.638-0.474,1.564-0.535,2.115-0.04c0.78,0.703,1.503,1.471,2.243,2.22c0.533,0.54,1.049,1.101,1.582,1.64
			c0.479,0.485,1.025,0.914,1.44,1.445c0.559,0.771,0.199,1.73-0.102,1.884c-0.623,0.319-1.224,0.686-1.86,0.979
			C336.129,435.169,335.585,435.319,335.033,435.516z M332.411,428.581c-0.597-0.012-1.04,0.204-1.143,0.504
			c-0.144,0.414,0.145,0.646,0.398,0.897c0.568,0.564,1.127,1.138,1.689,1.708c0.521,0.528,1.018,1.086,1.573,1.576
			c0.407,0.358,0.858,0.299,1.147-0.045c0.339-0.403,0.319-0.77-0.081-1.186c-0.543-0.562-1.097-1.115-1.642-1.676
			c-0.463-0.476-0.906-0.972-1.386-1.43C332.783,428.751,332.523,428.648,332.411,428.581z"/>
		<path fill-rule="evenodd" clip-rule="evenodd" fill="#c4fc02" d="M332.411,428.581c0.112,0.067,0.372,0.17,0.558,0.35
			c0.479,0.458,0.923,0.954,1.386,1.43c0.545,0.561,1.099,1.113,1.642,1.676c0.4,0.416,0.42,0.782,0.081,1.186
			c-0.289,0.344-0.74,0.403-1.147,0.045c-0.556-0.49-1.052-1.048-1.573-1.576c-0.562-0.57-1.121-1.144-1.689-1.708
			c-0.254-0.252-0.542-0.483-0.398-0.897C331.371,428.785,331.814,428.569,332.411,428.581z"/>
	</g>
</g>
</svg>
